<svg xmlns="http://www.w3.org/2000/svg" enable-background="new 0 0 50 50">	<path fill="rgba(255, 255, 255, 0.7)" d="M 48.935 32.24 C 49.627 29.9487 50 27.5171 50 25 C 50 11.1927 38.8073 0 25 0 C 14.3006 0 5.1729 6.7196 1.605 16.17 L 4.085 16.17 L 4.0874 15.962 L 4.0874 15.5017 C 4.0874 9.9531 9.2926 9.1712 11.9902 9.1712 C 12.978 9.1712 13.6239 9.2776 13.6239 9.0625 L 13.6239 13.1083 C 13.6239 13.1083 13.206 13.0462 12.6361 13.0462 C 11.2683 13.0462 8.9126 13.3231 8.9126 15.5938 L 8.9126 15.962 L 8.915 16.17 L 19.196 16.1712 C 20.9058 16.1712 21.7417 16.9252 21.7417 18.2167 L 21.7417 18.7548 C 21.7417 19.1494 21.7037 19.544 21.7037 19.7122 L 21.7797 19.7122 C 22.6489 18.0421 24.8428 16.1712 27.72 16.1712 C 30.5691 16.1712 32.4689 17.3741 33.3047 19.6788 L 33.3807 19.6788 C 34.4441 17.8417 37.142 16.1712 40.4532 16.1712 C 44.595 16.1712 46.9126 18.1757 46.9126 23.2281 L 46.9126 31.3416 C 46.9126 31.9124 47.2166 32.2386 47.7485 32.2386 L 48.935 32.24 ZM 0 25 C 0 38.8073 11.1927 50 25 50 C 34.8607 50 43.3861 44.2925 47.455 36 L 44.671 36 C 42.8472 36 42.0873 35.2969 42.0873 33.6094 L 42.0873 24.2066 C 42.0873 21.8418 41.6386 20.0462 39.2268 20.0462 C 36.6515 20.0462 34.812 22.2088 34.2397 24.8181 C 33.9944 25.6336 33.9126 26.4898 33.9126 27.4683 L 33.9126 36 L 29.0874 36 L 29.0874 24.2066 C 29.0874 21.9641 28.7989 20.0462 26.6051 20.0462 C 24.3033 20.0462 22.7568 22.2088 22.1814 24.7567 C 22.0015 25.5835 21.8936 26.4515 21.8936 27.4022 L 21.8936 36 L 17.1064 36 L 17.1064 20.9538 C 17.1064 20.3338 16.8024 20.0462 16.2705 20.0462 L 8.915 20.045 L 8.9126 35.9375 L 4.0874 35.9375 L 4.085 20.045 L 0.49 20.045 C 0.1681 21.6463 0 23.3039 0 25 Z"/></svg>