<?xml version="1.0" standalone="no"?><!-- Generator: Adobe Fireworks CS5, Export SVG Extension by Aaron Beall (http://fireworks.abeall.com) . Version: 0.6.0  --><!DOCTYPE svg PUBLIC "-//W3C//DTD SVG 1.1//EN" "http://www.w3.org/Graphics/SVG/1.1/DTD/svg11.dtd"><svg id="quote-icon" viewBox="0 0 100 83" style="background-color:#ffffff00" version="1.1"	xmlns="http://www.w3.org/2000/svg" xmlns:xlink="http://www.w3.org/1999/xlink" xml:space="preserve"	x="0px" y="0px" width="100px" height="83px">	<path fill="rgba(201, 144, 101, 0.3)" d="M 48.4933 9.2725 C 48.2668 9.2725 48.1623 9.3953 48.1623 9.6057 L 48.4933 9.2725 L 48.4933 9.2725 ZM 100 9.2725 C 99.7736 9.2725 99.6691 9.3953 99.6691 9.6057 L 100 9.2725 L 100 9.2725 ZM 87.2844 0.6792 C 82.5988 4.3971 77.2513 9.3777 71.2419 15.6561 C 64.9887 22.3905 60.1289 29.0723 56.68 35.7015 C 53.2311 42.3306 51.5067 48.7844 51.5067 55.0628 C 51.5067 63.3756 53.8931 70.11 58.6832 75.266 C 63.4733 80.422 68.8904 83 74.9173 83 C 81.3795 83 86.1174 81.1586 89.1308 77.4582 C 92.1268 73.7578 93.6422 69.426 93.6422 64.4804 C 93.6422 56.8692 89.6185 51.4852 81.606 48.3284 C 77.1468 46.9956 74.9173 44.4001 74.9173 40.5769 C 74.9173 31.5977 83.1563 21.2857 99.6691 9.6057 C 99.6691 9.6057 91.9526 -3.0212 87.2844 0.6792 ZM 35.7777 0.6792 C 31.0921 4.3971 25.8492 9.3777 20.0662 15.6561 C 13.5865 22.3905 8.6222 29.0723 5.1733 35.7015 C 1.7244 42.3306 0 48.7844 0 55.0628 C 0 63.3756 2.3863 70.11 7.1939 75.266 C 11.984 80.422 17.5057 83 23.7415 83 C 30.2038 83 34.8894 81.1586 37.7809 77.4582 C 40.6724 73.7578 42.1355 69.426 42.1355 64.4804 C 42.1355 56.8692 38.2338 51.4852 30.4302 48.3284 C 25.9711 46.9956 23.7415 44.4001 23.7415 40.5769 C 23.7415 31.3873 31.876 21.0577 48.1623 9.6057 C 48.1623 9.6057 40.4633 -3.0212 35.7777 0.6792 Z"/></svg>