<?xml version="1.0" standalone="no"?><!-- Generator: Adobe Fireworks CS5, Export SVG Extension by Aaron Beall (http://fireworks.abeall.com) . Version: 0.6.0  --><!DOCTYPE svg PUBLIC "-//W3C//DTD SVG 1.1//EN" "http://www.w3.org/Graphics/SVG/1.1/DTD/svg11.dtd"><svg id="quote-icon" viewBox="0 0 100 83" style="background-color:#ffffff00" version="1.1"	xmlns="http://www.w3.org/2000/svg" xmlns:xlink="http://www.w3.org/1999/xlink" xml:space="preserve"	x="0px" y="0px" width="100px" height="83px">	<path fill="rgba(201, 144, 101, 0.3)" d="M 51.5067 73.7275 C 51.7332 73.7275 51.8377 73.6047 51.8377 73.3943 L 51.5067 73.7275 L 51.5067 73.7275 ZM 0 73.7275 C 0.2264 73.7275 0.3309 73.6047 0.3309 73.3943 L 0 73.7275 L 0 73.7275 ZM 12.7156 82.3208 C 17.4012 78.6029 22.7487 73.6223 28.7581 67.3439 C 35.0113 60.6095 39.8711 53.9277 43.32 47.2985 C 46.7689 40.6694 48.4933 34.2156 48.4933 27.9372 C 48.4933 19.6244 46.1069 12.89 41.3168 7.734 C 36.5267 2.578 31.1096 0 25.0827 0 C 18.6205 0 13.8826 1.8414 10.8692 5.5418 C 7.8732 9.2422 6.3578 13.574 6.3578 18.5196 C 6.3578 26.1308 10.3815 31.5148 18.394 34.6716 C 22.8532 36.0044 25.0827 38.5999 25.0827 42.4231 C 25.0827 51.4023 16.8438 61.7143 0.3309 73.3943 C 0.3309 73.3943 8.0474 86.0212 12.7156 82.3208 ZM 64.2223 82.3208 C 68.9079 78.6029 74.1508 73.6223 79.9338 67.3439 C 86.4135 60.6095 91.3778 53.9277 94.8267 47.2985 C 98.2756 40.6694 100 34.2156 100 27.9372 C 100 19.6244 97.6137 12.89 92.8061 7.734 C 88.016 2.578 82.4943 0 76.2585 0 C 69.7962 0 65.1106 1.8414 62.2191 5.5418 C 59.3276 9.2422 57.8645 13.574 57.8645 18.5196 C 57.8645 26.1308 61.7662 31.5148 69.5698 34.6716 C 74.0289 36.0044 76.2585 38.5999 76.2585 42.4231 C 76.2585 51.6127 68.124 61.9423 51.8377 73.3943 C 51.8377 73.3943 59.5367 86.0212 64.2223 82.3208 Z" /></svg>